<svg width="28" height="28" viewBox="0 0 28 28" fill="none" xmlns="http://www.w3.org/2000/svg">
<path d="M15.3333 7.33335H12.6667V12.6667H7.33332V15.3334H12.6667V20.6667H15.3333V15.3334H20.6667V12.6667H15.3333V7.33335ZM14 0.666687C6.63999 0.666687 0.666656 6.64002 0.666656 14C0.666656 21.36 6.63999 27.3334 14 27.3334C21.36 27.3334 27.3333 21.36 27.3333 14C27.3333 6.64002 21.36 0.666687 14 0.666687ZM14 24.6667C8.11999 24.6667 3.33332 19.88 3.33332 14C3.33332 8.12002 8.11999 3.33335 14 3.33335C19.88 3.33335 24.6667 8.12002 24.6667 14C24.6667 19.88 19.88 24.6667 14 24.6667Z" fill="white"/>
</svg>
